<svg width="957" height="182" viewBox="0 0 957 182" fill="none" xmlns="http://www.w3.org/2000/svg">
<path d="M24.5528 131.817C27.3832 135.405 30.1097 139.08 33.1132 142.521C33.745 143.239 35.3723 143.308 36.5321 143.308C52.3717 143.36 68.2113 143.343 84.0596 143.343C105.802 143.343 127.554 143.351 149.296 143.334C152.43 143.334 155.122 143.956 156.558 147.147C157.77 149.827 157.407 152.092 155.13 154.401C148.855 160.756 141.835 166.125 133.967 170.379C125.095 175.168 115.696 178.549 105.768 180.166C97.242 181.558 88.6384 181.705 79.9915 180.667C72.0804 179.716 64.5414 177.641 57.1236 174.874C54.2067 173.785 52.5794 171.814 52.0341 168.883C51.6533 166.825 53.2632 163.747 55.6868 162.908C57.4439 162.295 59.8068 162.061 61.4687 162.736C72.1063 167.015 83.1075 169.004 94.5328 168.416C107.101 167.767 118.863 164.266 129.761 157.954C130.185 157.704 130.609 157.444 131.025 157.176C131.241 157.038 131.44 156.856 132.106 156.337C130.791 156.277 129.977 156.208 129.164 156.208C96.9044 156.208 64.6453 156.173 32.3861 156.251C29.2355 156.251 26.9331 155.17 24.8731 152.914C17.9573 145.357 12.2966 136.996 8.09868 127.65C6.07329 123.145 8.80843 118.528 13.8892 118.07C14.6076 118.01 15.326 118.044 16.0445 118.044C63.9268 118.044 111.818 118.044 159.7 118.044C163.379 118.044 163.249 118.001 164.521 114.361C166.962 107.41 167.958 100.242 168.148 92.919C168.33 85.9158 167.793 78.9644 166.001 72.2205C160.28 50.7179 147.626 34.3597 128.367 23.2928C120.811 18.9438 112.536 16.2636 103.872 14.8197C93.1393 13.03 82.493 13.3412 71.9592 15.9523C61.6072 18.5202 52.1034 22.9902 43.6556 29.5611C36.9562 34.7747 31.131 40.8009 26.4397 47.8993C22.1899 54.3319 18.9181 61.2055 16.6244 68.5805C13.8286 77.5637 12.9285 86.7285 13.2833 96.0748C13.3439 97.7954 13.5344 99.5678 13.2401 101.245C12.6515 104.565 9.05079 106.121 6.94749 106C3.76226 105.81 0.810724 103.052 0.750135 99.9223C0.628958 93.6712 0.196181 87.351 0.862657 81.1691C2.1004 69.6959 5.5453 58.8192 11.0416 48.5564C16.8581 37.697 24.5442 28.4458 34.0566 20.7422C42.7987 13.6611 52.5881 8.4476 63.3642 4.99785C73.5864 1.69508 83.9904 0.311714 94.628 0.744014C104.365 1.13308 113.765 3.18219 122.923 6.64923C134.331 10.9636 144.397 17.327 153.157 25.6877C162.505 34.6191 169.68 45.0721 174.536 57.1505C179.47 69.4106 181.685 82.0942 181.097 95.2275C180.759 102.732 179.721 110.176 177.089 117.301C175.843 120.664 174.778 124.097 173.428 127.417C172.459 129.812 170.39 130.918 167.845 131.1C167.057 131.16 166.261 131.117 165.474 131.117C119.53 131.117 73.5951 131.117 27.6515 131.117H25.0895C24.9164 131.351 24.7346 131.584 24.5615 131.817H24.5528Z" fill="#FFB401"/>
<path d="M25.7872 90.8187C25.6314 78.014 29.1975 66.3505 36.2171 55.5949C44.1023 43.5078 54.7486 35.1125 68.1907 29.9768C78.8023 25.9218 89.7516 24.6855 100.831 26.6049C119.916 29.9076 135.029 39.6085 145.692 55.984C149.76 62.2264 152.582 68.9789 154.322 76.1378C156.252 84.0835 156.564 92.2021 155.386 100.321C154.902 103.649 151.24 106.468 148.332 105.967C144.532 105.309 142.247 102.206 142.654 98.4013C143.459 90.9139 143.338 83.4264 141.001 76.2329C135.531 59.4424 124.711 47.4936 107.824 41.7527C89.1976 35.4238 72.1203 38.8563 56.9471 51.2892C49.8842 57.0734 44.9159 64.4311 41.7134 72.9993C39.186 79.7692 38.0867 86.7551 38.3983 93.9486C38.4676 95.574 38.9956 97.1822 39.0735 98.8077C39.2466 102.327 37.3423 104.756 33.7676 105.828C31.5778 106.485 28.505 105.18 27.1202 102.586C26.3498 101.133 25.9949 99.3696 25.8391 97.7096C25.6314 95.4271 25.7872 93.1099 25.7872 90.8101V90.8187Z" fill="#FFB401"/>
<path d="M50.5057 90.8618C50.549 74.0021 62.1993 58.4306 77.8658 53.2084C96.4666 47.0093 116.175 54.7215 125.792 71.5293C130.448 79.6566 131.79 88.5706 130.292 97.8132C129.756 101.107 129.02 104.41 125.013 105.586C121.386 106.649 117.101 103.986 116.963 100.174C116.911 98.6345 117.387 97.0783 117.603 95.522C119.17 84.3513 114.513 73.6476 104.559 67.7337C90.5462 59.4076 73.4169 65.3042 66.579 78.8698C64.1122 83.7548 62.9091 88.8905 63.9391 94.5018C64.4151 97.0956 65.4711 99.8969 63.8698 102.568C62.6667 104.574 59.7844 106.234 57.811 105.966C54.8594 105.569 52.2108 103.243 51.7434 100.381C51.2241 97.2166 50.9039 94.0262 50.497 90.8445L50.5057 90.8618Z" fill="#FFB401"/>
<path d="M261.09 131.005C240.389 131.005 224.389 115.005 224.389 93.5054C224.389 72.0054 240.389 56.2054 261.09 56.2054C281.89 56.2054 297.989 72.0054 297.989 93.5054C297.989 115.005 281.89 131.005 261.09 131.005ZM261.09 117.405C274.29 117.405 282.289 106.705 282.289 93.5054C282.289 80.3054 274.29 69.8054 261.09 69.8054C247.989 69.8054 239.989 80.3054 239.989 93.5054C239.989 106.705 247.989 117.405 261.09 117.405ZM321.172 100.405V129.505H307.272V76.1054H320.072V83.7054C323.972 78.4054 329.472 75.1054 336.472 75.1054C347.172 75.1054 354.572 82.1054 354.572 95.0054V129.505H340.772V99.7054C340.772 91.8054 337.672 87.4054 331.372 87.4054C325.872 87.4054 321.172 91.8054 321.172 100.405ZM389.75 130.405C373.75 130.405 363.05 119.305 363.05 102.605C363.05 86.7054 374.15 75.1054 389.55 75.1054C406.45 75.1054 417.65 88.8054 415.15 106.205H377.25C378.15 114.905 382.35 119.705 389.45 119.705C395.55 119.705 399.65 116.705 401.25 111.405H415.05C412.05 123.505 402.75 130.405 389.75 130.405ZM389.25 85.3054C382.75 85.3054 378.65 89.5054 377.45 97.4054H400.45C400.05 90.0054 395.85 85.3054 389.25 85.3054ZM457.46 131.005C437.26 131.005 421.46 114.605 421.46 93.5054C421.46 72.5054 437.26 56.2054 457.46 56.2054C476.36 56.2054 491.16 68.8054 493.66 87.2054H477.56C475.86 76.9054 467.86 69.8054 457.66 69.8054C445.36 69.8054 437.06 79.5054 437.06 93.5054C437.06 107.605 445.36 117.405 457.66 117.405C467.86 117.405 475.76 110.205 477.56 99.9054H493.66C491.16 118.505 476.36 131.005 457.46 131.005ZM517.073 129.505H503.073V57.7054H517.073V129.505ZM545.638 63.7054C545.638 68.4054 541.838 71.9054 536.338 71.9054C530.938 71.9054 527.138 68.4054 527.138 63.7054C527.138 58.8054 530.938 55.3054 536.338 55.3054C541.838 55.3054 545.638 58.8054 545.638 63.7054ZM543.438 129.505H529.538V76.1054H543.438V129.505ZM578.307 130.505C562.907 130.505 552.307 119.105 552.307 102.805C552.307 86.8054 563.307 75.1054 578.307 75.1054C592.207 75.1054 602.507 84.5054 604.207 98.9054H589.607C588.907 91.8054 584.607 87.4054 578.307 87.4054C571.107 87.4054 566.507 93.3054 566.507 102.805C566.507 112.405 571.007 118.205 578.307 118.205C584.707 118.205 588.807 114.005 589.607 106.705H604.207C602.607 121.405 592.607 130.505 578.307 130.505ZM627.032 129.505H613.132V57.7054H627.032V98.7054L646.532 76.1054H662.532L640.432 101.705L665.132 129.505H647.432L627.032 104.705V129.505ZM748.729 107.205C748.729 120.905 737.729 130.505 719.729 130.505C701.629 130.505 690.329 120.805 689.229 105.605H704.629C705.029 113.505 710.129 118.605 719.429 118.605C727.129 118.605 732.629 115.205 732.629 109.405C732.629 104.905 729.129 102.205 723.029 101.005L711.229 98.7054C700.329 96.6054 691.929 90.7054 691.929 78.8054C691.929 66.0054 703.229 56.8054 718.729 56.8054C734.829 56.8054 746.629 66.2054 747.629 81.2054H732.229C731.729 73.7054 726.529 68.6054 718.929 68.6054C711.529 68.6054 707.329 72.8054 707.329 77.8054C707.329 82.7054 711.829 84.8054 717.029 85.8054L729.329 88.3054C741.929 90.8054 748.729 96.6054 748.729 107.205ZM792.328 116.005V128.105C788.928 129.805 785.728 130.505 781.628 130.505C770.628 130.505 763.728 124.205 763.728 112.205V88.0054H752.928V76.1054H763.728V60.3054H777.528V76.1054H792.828V88.0054H777.528V109.005C777.528 115.205 780.328 117.705 785.328 117.705C787.928 117.705 790.328 117.105 792.328 116.005ZM833.115 129.505V122.905C829.615 127.905 824.315 130.505 817.015 130.505C805.915 130.505 798.515 124.005 798.515 114.005C798.515 103.605 806.915 98.0054 822.515 98.0054C825.515 98.0054 828.115 98.2054 831.415 98.6054V95.4054C831.415 89.4054 828.015 85.9054 822.215 85.9054C816.215 85.9054 812.615 89.4054 812.115 95.4054H799.615C800.415 83.1054 809.315 75.1054 822.215 75.1054C836.215 75.1054 844.415 82.8054 844.415 95.9054V129.505H833.115ZM811.615 113.605C811.615 118.105 814.815 120.905 820.015 120.905C827.115 120.905 831.415 117.005 831.415 110.805V107.005C828.115 106.505 825.815 106.305 823.415 106.305C815.515 106.305 811.615 108.805 811.615 113.605ZM902.638 76.1054L876.638 148.805H861.538L869.138 128.905L848.138 76.1054H863.138L876.538 112.705L888.738 76.1054H902.638ZM952.47 112.405C952.47 123.605 943.97 130.505 928.77 130.505C913.57 130.505 905.07 123.205 903.97 111.305H917.27C917.37 116.805 922.07 120.305 928.97 120.305C934.37 120.305 938.47 118.605 938.47 114.805C938.47 111.405 936.27 110.005 931.17 109.005L921.57 107.205C911.97 105.505 906.17 100.205 906.17 91.9054C906.17 82.0054 914.67 75.1054 927.97 75.1054C941.37 75.1054 950.57 82.2054 951.57 93.7054H938.27C937.77 88.5054 933.87 85.3054 927.97 85.3054C922.87 85.3054 919.47 87.2054 919.47 90.6054C919.47 93.8054 921.67 95.1054 926.47 96.0054L936.77 97.9054C947.17 99.9054 952.47 104.705 952.47 112.405Z" fill="white"/>
</svg>
