<svg width="38" height="38" viewBox="0 0 38 38" fill="none" xmlns="http://www.w3.org/2000/svg">
<path d="M4.9606 27.0481C5.54433 27.7881 6.10663 28.546 6.72606 29.2557C6.85637 29.4037 7.19197 29.4179 7.43117 29.4179C10.6979 29.4286 13.9646 29.4251 17.2331 29.4251C21.7173 29.4251 26.2032 29.4268 30.6874 29.4233C31.3336 29.4233 31.8888 29.5517 32.1851 30.2096C32.435 30.7624 32.36 31.2296 31.8906 31.7057C30.5964 33.0163 29.1486 34.1236 27.526 35.0009C25.6963 35.9888 23.7577 36.686 21.7102 37.0194C19.9518 37.3065 18.1774 37.3368 16.3941 37.1228C14.7626 36.9267 13.2077 36.4987 11.6779 35.9281C11.0763 35.7035 10.7407 35.2969 10.6283 34.6924C10.5497 34.268 10.8818 33.6332 11.3816 33.4603C11.744 33.3337 12.2313 33.2855 12.574 33.4246C14.7679 34.3073 17.0368 34.7174 19.3931 34.5961C21.9851 34.4624 24.411 33.7402 26.6584 32.4385C26.7459 32.3868 26.8334 32.3333 26.9191 32.2781C26.9637 32.2495 27.0047 32.2121 27.1422 32.1051C26.8709 32.0926 26.7031 32.0784 26.5353 32.0784C19.8822 32.0784 13.2292 32.0712 6.57611 32.0873C5.92634 32.0873 5.4515 31.8644 5.02665 31.399C3.60036 29.8405 2.4329 28.1162 1.56713 26.1887C1.14942 25.2597 1.71351 24.3075 2.76136 24.213C2.90953 24.2005 3.05769 24.2076 3.20585 24.2076C13.081 24.2076 22.9579 24.2076 32.8331 24.2076C33.5917 24.2076 33.565 24.1987 33.8274 23.448C34.3308 22.0144 34.5361 20.5362 34.5753 19.0258C34.6128 17.5815 34.5021 16.1479 34.1326 14.757C32.9527 10.3224 30.3429 6.9487 26.371 4.66629C24.8126 3.76938 23.1061 3.2166 21.3192 2.91882C19.1057 2.54971 16.91 2.61391 14.7376 3.15241C12.6026 3.682 10.6426 4.60388 8.90031 5.95906C7.51864 7.03429 6.31727 8.27713 5.34975 9.74108C4.47327 11.0677 3.7985 12.4853 3.32545 14.0063C2.74887 15.859 2.56322 17.7491 2.63641 19.6767C2.6489 20.0315 2.68817 20.3971 2.62748 20.743C2.50609 21.4277 1.76349 21.7487 1.32972 21.7237C0.6728 21.6845 0.0640829 21.1157 0.0515872 20.4702C0.0265959 19.181 -0.0626589 17.8775 0.0747935 16.6026C0.330062 14.2364 1.04053 11.9932 2.17407 9.8766C3.37365 7.63699 4.95882 5.72904 6.92064 4.14027C8.72358 2.67988 10.7425 1.60465 12.965 0.893185C15.0732 0.212029 17.2189 -0.0732716 19.4127 0.0158849C21.421 0.0961258 23.3596 0.518728 25.2482 1.23376C27.601 2.12355 29.677 3.43593 31.4835 5.16022C33.4115 7.00219 34.8913 9.158 35.8927 11.649C36.9102 14.1775 37.3672 16.7934 37.2458 19.5019C37.1762 21.0497 36.962 22.585 36.4193 24.0543C36.1623 24.7479 35.9427 25.4558 35.6642 26.1405C35.4643 26.6345 35.0377 26.8627 34.5129 26.9001C34.3504 26.9126 34.1862 26.9037 34.0237 26.9037C24.5485 26.9037 15.075 26.9037 5.59966 26.9037H5.07128C5.03557 26.9519 4.99809 27 4.96239 27.0481H4.9606Z" fill="#FFB401"/>
<path d="M5.21517 18.5927C5.18304 15.9519 5.9185 13.5464 7.36621 11.3282C8.99244 8.83539 11.1881 7.10397 13.9604 6.04479C16.1489 5.2085 18.407 4.95351 20.692 5.34937C24.6281 6.03052 27.7449 8.0312 29.9441 11.4084C30.7831 12.6959 31.365 14.0885 31.7238 15.5649C32.1219 17.2036 32.1862 18.878 31.9434 20.5523C31.8434 21.2388 31.0884 21.8202 30.4886 21.7167C29.7049 21.5812 29.2336 20.9411 29.3175 20.1565C29.4835 18.6123 29.4586 17.0681 28.9766 15.5845C27.8484 12.1217 25.617 9.65741 22.1343 8.47341C18.2928 7.16816 14.7708 7.87606 11.6415 10.4402C10.1849 11.6331 9.16024 13.1506 8.49975 14.9177C7.9785 16.3138 7.75179 17.7546 7.81606 19.2382C7.83034 19.5734 7.93923 19.9051 7.9553 20.2403C7.991 20.966 7.59828 21.4671 6.86103 21.6882C6.4094 21.8237 5.77569 21.5545 5.49008 21.0195C5.33121 20.72 5.25802 20.3562 5.22588 20.0138C5.18304 19.5431 5.21517 19.0652 5.21517 18.5909V18.5927Z" fill="#FFB401"/>
<path d="M10.3131 18.6016C10.322 15.1245 12.7247 11.913 15.9557 10.836C19.7919 9.55752 23.8566 11.1481 25.8398 14.6145C26.8002 16.2906 27.0769 18.129 26.7681 20.0352C26.6574 20.7146 26.5057 21.3957 25.6792 21.6382C24.9312 21.8576 24.0476 21.3084 24.019 20.522C24.0083 20.2046 24.1065 19.8836 24.1511 19.5627C24.4742 17.2589 23.5138 15.0513 21.461 13.8317C18.5709 12.1145 15.0382 13.3306 13.628 16.1284C13.1192 17.1358 12.8711 18.195 13.0835 19.3523C13.1817 19.8872 13.3995 20.4649 13.0692 21.0159C12.8211 21.4296 12.2267 21.772 11.8197 21.7167C11.211 21.6347 10.6647 21.155 10.5683 20.5648C10.4612 19.9122 10.3952 19.2542 10.3113 18.598L10.3131 18.6016Z" fill="#FFB401"/>
</svg>
