<svg width="96" height="96" viewBox="0 0 96 96" fill="none" xmlns="http://www.w3.org/2000/svg">
<path d="M25.2765 38.1387L16.4266 29.2881C15.0804 27.9426 15.0804 25.76 16.4266 24.4146C17.7728 23.0684 19.9547 23.0684 21.3002 24.4146L30.1507 33.2644L25.2765 38.1387Z" fill="#F97473"/>
<path d="M43.2602 96C39.6538 96 36.73 93.0769 36.73 89.4697V80.9451H49.7905V89.4697C49.7905 93.0769 46.8667 96 43.2602 96Z" fill="#F97473"/>
<path d="M71.5395 86.0669C67.9331 86.0669 65.0093 83.1438 65.0093 79.5373V71.012H78.0691V79.5373C78.0691 83.1438 75.146 86.0669 71.5395 86.0669Z" fill="#F97473"/>
<path d="M21.947 83.4177C18.3406 83.4177 15.4175 80.4939 15.4175 76.8874V63.5076H28.4773V76.8874C28.4773 80.4939 25.5535 83.4177 21.947 83.4177Z" fill="#F97473"/>
<path d="M15.4085 36.074C6.50149 51.501 13.822 72.4028 31.759 82.7593C49.696 93.1157 71.4577 89.0046 80.3655 73.5776C89.2724 58.1507 81.9519 37.2488 64.0149 26.8924C46.0771 16.5367 24.3154 20.647 15.4085 36.074Z" fill="#F9A2A1"/>
<path d="M42.651 50.8228C44.7384 48.3699 47.255 46.0708 50.1554 44.0566C50.9069 43.5352 51.6672 43.0474 52.4333 42.5874L50.8879 40.4158C49.1264 37.9402 45.4972 37.7615 42.7829 40.0173C40.0678 42.2725 39.2958 46.1074 41.0573 48.583L42.651 50.8228Z" fill="#FAB5B4"/>
<path d="M76.3743 38.3687L76.7493 35.3276C77.1008 32.4756 75.1482 30.4541 72.3877 30.813C69.6279 31.1719 67.1055 33.7749 66.7539 36.627L66.6353 37.5916C70.1348 37.1946 73.46 37.4524 76.3743 38.3687Z" fill="#FAB5B4"/>
<path d="M74.5266 37.8896L74.7339 36.2117C74.9485 34.4656 73.7532 33.2278 72.0635 33.4475C70.3738 33.6672 68.8291 35.261 68.6138 37.0071L68.561 37.4363C70.6492 37.3425 72.6545 37.4956 74.5266 37.8896Z" fill="#FBC7C6"/>
<path d="M44.3543 48.9543C46.0645 47.2009 48.0047 45.55 50.1558 44.0566C50.221 44.0112 50.2862 43.9688 50.3521 43.9241L49.3721 42.5479C48.294 41.0317 46.0718 40.9226 44.41 42.304C42.7481 43.6846 42.275 46.0327 43.3531 47.5481L44.3543 48.9543Z" fill="#FBC7C6"/>
<path d="M84.5578 62.7437C84.5578 67.7175 80.4248 74.1357 75.3271 77.0793C70.2288 80.0229 66.0957 78.3765 66.0957 73.4026C66.0957 68.428 70.2288 62.0098 75.3271 59.0662C80.4248 56.1233 84.5578 57.769 84.5578 62.7437Z" fill="#F97473"/>
<path d="M71.6504 75.583L71.4285 75.7112C70.606 76.1858 69.9395 75.6819 69.9395 74.5854V67.7813C69.9395 66.6848 70.606 65.4111 71.4285 64.9365L71.6504 64.8076C72.4729 64.333 73.1394 64.8369 73.1394 65.9334V72.7383C73.1394 73.8347 72.4729 75.1084 71.6504 75.583Z" fill="#97463C"/>
<path d="M79.2251 71.2097L79.0032 71.3379C78.1807 71.8132 77.5142 71.3086 77.5142 70.2129V63.408C77.5142 62.3115 78.1807 61.0378 79.0032 60.5632L79.2251 60.4343C80.0476 59.9597 80.7141 60.4636 80.7141 61.5601V68.365C80.7141 69.4614 80.0476 70.7351 79.2251 71.2097Z" fill="#97463C"/>
<path d="M63.9853 58.5015C63.9853 59.9971 62.7725 61.2107 61.2761 61.2107C59.7798 61.2107 58.5669 59.9971 58.5669 58.5015C58.5669 57.0051 59.7798 55.7922 61.2761 55.7922C62.7725 55.7922 63.9853 57.0051 63.9853 58.5015Z" fill="#97463C"/>
<path d="M81.823 51.1245C81.823 52.6208 80.6101 53.8337 79.1138 53.8337C77.6182 53.8337 76.4053 52.6208 76.4053 51.1245C76.4053 49.6282 77.6182 48.4153 79.1138 48.4153C80.6101 48.4153 81.823 49.6282 81.823 51.1245Z" fill="#97463C"/>
<path d="M57.771 39.5413C57.0701 39.5413 56.3699 39.2673 55.8462 38.7224C55.7913 38.6653 50.2424 32.9978 40.6118 29.4683C39.2268 28.9607 38.5156 27.4263 39.0232 26.0413C39.5308 24.6563 41.0652 23.9451 42.4502 24.4527C53.3062 28.4312 59.4439 34.7556 59.7002 35.023C60.7205 36.0886 60.6838 37.7798 59.6182 38.8001C59.1011 39.2952 58.4353 39.5413 57.771 39.5413Z" fill="#97463C"/>
<path d="M62.1838 19.7849C62.1838 12.6094 57.8215 4.2737 52.4397 1.16677C50.1919 -0.131081 48.1228 -0.307594 46.4741 0.446067L46.4727 0.442405L42.1279 2.97439C42.1279 2.97439 38.52 4.42604 38.52 10.9841C38.52 18.1589 42.8823 26.4954 48.2642 29.6023C50.9272 31.1397 53.3398 31.1067 55.0991 29.8132L55.0998 29.8147L58.814 27.6621C60.8772 26.4705 62.1838 23.71 62.1838 19.7849Z" fill="#C3A600"/>
<path d="M58.0085 22.2356C58.0085 29.4111 53.6455 32.7092 48.2644 29.6023C42.8826 26.4954 38.5195 18.1597 38.5195 10.9841C38.5195 3.8086 42.8826 0.510506 48.2644 3.61744C53.6455 6.72437 58.0085 15.0601 58.0085 22.2356Z" fill="#FFD800"/>
<path d="M54.9536 20.4719C54.9536 25.3975 51.9587 27.6614 48.2644 25.5286C44.5701 23.3958 41.5752 17.6733 41.5752 12.7478C41.5752 7.82227 44.5701 5.55836 48.2644 7.69117C51.9587 9.82398 54.9536 15.5464 54.9536 20.4719Z" fill="#C3A600"/>
<path d="M52.8794 19.2744C52.8794 22.6729 50.8132 24.2344 48.2644 22.7629C45.7156 21.2915 43.6494 17.3438 43.6494 13.9453C43.6494 10.5476 45.7156 8.98536 48.2644 10.4568C50.8132 11.9282 52.8794 15.876 52.8794 19.2744Z" fill="#FFD800"/>
</svg>
