<svg width="96" height="96" viewBox="0 0 96 96" fill="none" xmlns="http://www.w3.org/2000/svg">
<path d="M74.2238 26.1731L74.215 26.1746C74.2919 25.0152 73.4606 23.7898 71.8478 22.8589L58.2065 14.9832C55.9081 13.656 52.5749 13.2407 50.0099 13.9629C31.2189 19.2503 16.3302 27.8467 7.17127 38.6961C6.81532 39.1172 6.62416 39.575 6.57875 40.0437L6.57362 40.0452V40.0906C6.5641 40.2137 6.57362 83.4156 6.57362 83.4156C6.5641 83.5386 6.56263 83.6617 6.57362 83.7855V83.8016H6.57435C6.67396 84.8489 7.49354 85.919 8.93788 86.7525L22.5792 94.6283C24.8783 95.9554 28.2108 96.3707 30.7758 95.6485C49.5668 90.3604 64.4562 81.7647 73.6152 70.9153C74.1044 70.336 74.2875 69.6885 74.1967 69.0352L74.2231 69.0294V26.1731H74.2238Z" fill="#FFD800"/>
<path d="M50.0097 13.9629C52.5746 13.2407 55.9079 13.656 58.2062 14.9832L71.8476 22.8589C74.146 24.1861 74.8645 26.1101 73.6149 27.5911C64.456 38.4397 49.5666 47.0362 30.7756 52.3243C28.2106 53.0457 24.8781 52.6311 22.579 51.304L8.93765 43.4283C6.63931 42.1011 5.9208 40.1763 7.17105 38.6961C16.33 27.8467 31.2187 19.251 50.0097 13.9629Z" fill="#DCA700"/>
<path d="M6.57215 40.4246C6.56483 44.4324 6.57362 83.4163 6.57362 83.4163C6.5641 83.5386 6.56263 83.6617 6.57362 83.7854V83.8023L6.57435 83.8015C6.67396 84.8489 7.49354 85.919 8.93788 86.7525L22.5792 94.6289V51.304L8.93788 43.4282C7.46937 42.5801 6.64906 41.488 6.57215 40.4246Z" fill="#F0C419"/>
<path d="M24.3572 46.5901C21.5022 46.5901 19.1885 44.2757 19.1885 41.4214V34.8194C19.1885 21.4658 26.3721 9.02418 37.9356 2.34741C43.3577 -0.782227 49.8316 -0.782227 55.2537 2.34741C60.6751 5.47779 63.9124 11.0845 63.9124 17.3452V21.5676C63.9124 24.4226 61.5979 26.7363 58.7437 26.7363C55.8894 26.7363 53.575 24.4226 53.575 21.5676V17.3452C53.575 14.822 52.2705 12.5618 50.085 11.2998C47.8994 10.0378 45.2898 10.0386 43.1043 11.2998C34.7283 16.1353 29.5252 25.1477 29.5252 34.8194V41.4214C29.5252 44.2757 27.2114 46.5901 24.3572 46.5901Z" fill="#E9E9E9"/>
<path d="M85.4048 43.9856L85.3792 43.9717C85.2276 43.8758 85.073 43.7864 84.9148 43.7036L80.8755 41.376L80.874 41.3804C78.5164 39.9683 75.4226 40.0686 72.0322 42.0264C64.6465 46.2906 58.6597 57.7295 58.6597 67.5769C58.6597 73.0071 60.4819 76.8143 63.3538 78.4263L63.3516 78.4307L67.6582 80.9078L67.6604 80.9026C70.0064 82.2606 73.0657 82.1397 76.4143 80.2061C83.8001 75.9419 89.7869 64.503 89.7869 54.6556C89.7869 49.4231 88.0965 45.6929 85.4048 43.9856Z" fill="#239D58"/>
<path d="M89.7871 54.6555C89.7871 64.5029 83.8003 75.9419 76.4146 80.2061C69.0295 84.4702 63.042 79.9439 63.042 70.0965C63.042 60.249 69.0295 48.8101 76.4146 44.5459C83.8003 40.2817 89.7871 44.8081 89.7871 54.6555Z" fill="#A4C639"/>
<path d="M74.2054 75.0872C73.4151 75.5428 72.6256 75.597 72.0228 75.1414L66.4681 70.9424C65.2632 70.0313 65.2632 67.426 66.4681 65.1233C67.6736 62.8206 69.627 61.6926 70.8326 62.6038L74.2054 65.1533L81.3326 51.5354C82.5374 49.2327 84.4915 48.1047 85.6964 49.0159C86.9019 49.927 86.9019 52.5322 85.6964 54.835L76.3873 72.6219C75.7845 73.7732 74.9949 74.6309 74.2054 75.0872Z" fill="white"/>
</svg>
