<svg width="96" height="96" viewBox="0 0 96 96" fill="none" xmlns="http://www.w3.org/2000/svg">
<g clip-path="url(#clip0_23_64)">
<path d="M63.8594 41.6259L62.5552 40.8729C60.0699 39.438 47.2407 42.4539 47.2407 42.4539C38.494 44.0349 29.7031 51.1802 25.7703 59.1512L25.7714 59.1536C25.0015 60.4455 24.5581 62.2136 24.5581 64.3768V85.1495L43.3518 96L72.604 79.107V58.3342C72.604 51.8947 68.689 44.4142 63.8594 41.6259Z" fill="#C8CED6"/>
<path d="M57.7524 57.9519L61.4169 43.8682L57.65 46.2472L55.1621 56.0415L57.7524 57.9519Z" fill="white"/>
<path d="M55.162 56.0415L46.4761 52.0365H41.4629L52.5143 60.963L55.162 56.0415Z" fill="white"/>
<path d="M57.65 47.7585L55.162 56.0415L46.4761 53.2592L57.65 47.7585Z" fill="#E0A679"/>
<path d="M65.1069 21.3686C65.1069 23.8485 66.6146 26.7293 68.4746 27.8031C70.3344 28.8769 71.8423 27.7371 71.8423 25.2572C71.8423 22.7773 70.3346 19.8966 68.4746 18.8228C66.6146 17.749 65.1069 18.8888 65.1069 21.3686Z" fill="#2E527C"/>
<path d="M71.5482 27.6469C71.5482 24.4194 67.759 13.8626 62.386 16.4634L62.3852 16.4617L62.3657 16.473C62.2592 16.5257 62.1559 16.5849 62.0558 16.6511L60.0499 17.8042C54.0739 20.9239 61.2349 36.8447 67.2752 33.5518L67.2756 33.5527L69.474 32.28C69.5573 32.2372 69.6383 32.1902 69.7176 32.139L69.7249 32.1347L69.7245 32.1341C70.8454 31.4051 71.5482 29.8384 71.5482 27.6469Z" fill="#284363"/>
<path d="M57.9927 22.429C57.9927 26.5881 60.5215 31.4198 63.6407 33.2207C66.7602 35.0217 69.2888 33.1101 69.2888 28.9508C69.2888 24.7915 66.76 19.96 63.6407 18.159C60.5213 16.3581 57.9927 18.2698 57.9927 22.429Z" fill="#212938"/>
<path d="M66.2176 16.992C65.7551 9.61952 64.2697 4.02771 56.8025 1.79252C50.1256 -0.206043 44.8694 -1.47186 36.6995 3.24508C28.4673 7.99802 23.396 16.7816 23.396 26.2873V45.5166C23.396 49.3622 25.4778 52.9067 28.8367 54.7795L39.2088 60.5625V50.1977L43.0126 52.4151L52.301 49.7192C60.4797 47.3455 66.3369 40.0108 66.5637 31.4976C66.5686 31.3172 66.5711 31.1365 66.5711 30.9553C66.5709 30.9553 66.5819 22.8023 66.2176 16.992Z" fill="#FF9F2C"/>
<path d="M66.5707 28.9374V45.0624L59.3765 40.9089L66.5707 28.9374Z" fill="#FF9F2C"/>
<path d="M66.2171 16.9922C60.6997 20.9996 54.9551 18.7224 53.9731 11.873C53.0677 19.2341 47.8828 30.8321 39.3037 31.7959V46.1923C39.3037 51.626 45.1871 55.0207 49.8915 52.3016L56.4356 48.519C62.7075 44.8939 66.5703 38.1995 66.5703 30.9553V21.5426C66.5705 20.0049 66.4481 18.4849 66.2171 16.9922C66.4481 18.4849 65.8061 17.2907 66.2171 16.9922Z" fill="#FCBF90"/>
<path d="M54.4925 43.9322C57.9723 41.9231 60.793 36.5334 60.793 31.8937L48.1919 39.1689C48.1919 43.8086 51.0126 45.9412 54.4925 43.9322Z" fill="#C40041"/>
<path d="M46.186 34.2617C45.9271 34.2617 45.7173 34.0519 45.7173 33.793C45.7173 32.2772 46.6216 30.5678 47.776 29.9014C48.3659 29.5609 48.9565 29.527 49.4384 29.8052C49.9882 30.1225 50.3033 30.8083 50.3033 31.6866C50.3033 31.9455 50.0935 32.1553 49.8346 32.1553C49.5757 32.1553 49.3658 31.9455 49.3658 31.6866C49.3658 31.1601 49.2177 30.7603 48.9697 30.6171C48.739 30.4838 48.4482 30.5957 48.2448 30.7133C47.3828 31.2109 46.6548 32.6211 46.6548 33.793C46.6548 34.0519 46.445 34.2617 46.186 34.2617Z" fill="#212938"/>
<path d="M57.9927 27.4451C57.7337 27.4451 57.5239 27.2353 57.5239 26.9764C57.5239 25.4606 58.4281 23.7512 59.5825 23.0846C60.1726 22.7443 60.7628 22.71 61.2451 22.9885C61.7948 23.3059 62.11 23.9916 62.11 24.8698C62.11 25.1288 61.9002 25.3386 61.6412 25.3386C61.3823 25.3386 61.1725 25.1288 61.1725 24.8698C61.1725 24.3433 61.0244 23.9436 60.7763 23.8003C60.5455 23.667 60.2547 23.779 60.0512 23.8965C59.1893 24.3941 58.4614 25.8045 58.4614 26.9764C58.4614 27.2353 58.2516 27.4451 57.9927 27.4451Z" fill="#212938"/>
<path d="M55.1321 50.4018C55.1321 49.5045 54.5865 48.4622 53.9135 48.0735C53.586 47.8845 53.2893 47.8863 53.0703 48.0401L53.07 48.0393L49.7156 49.9985L49.716 49.9995C49.3787 50.0938 49.1548 50.468 49.1548 51.0422C49.1548 51.9395 49.7004 52.9818 50.3734 53.3705C50.6653 53.5391 50.933 53.5565 51.143 53.4493V53.4495L51.1445 53.4485C51.1496 53.4459 51.1545 53.4427 51.1595 53.4399L54.6673 51.4085C54.6962 51.3948 54.7239 51.3785 54.7505 51.3603L54.7633 51.353L54.7631 51.3525C54.9903 51.1884 55.1321 50.8584 55.1321 50.4018Z" fill="#284363"/>
<path d="M51.5914 52.4492C51.5914 53.3466 51.0458 53.7589 50.3729 53.3704C49.6999 52.9819 49.1543 51.9394 49.1543 51.042C49.1543 50.1446 49.6999 49.7323 50.3729 50.1208C51.046 50.5095 51.5914 51.552 51.5914 52.4492Z" fill="#212938"/>
<path d="M40.196 48.69L41.9963 51.329C43.1926 53.0824 45.5378 53.6173 47.3761 52.556L49.6514 51.2424C50.1607 50.9484 50.7972 51.3159 50.7972 51.9039C50.7972 52.2598 50.6073 52.5887 50.2992 52.7666L47.9275 54.1359C45.4261 55.5802 42.236 54.8765 40.5742 52.514L38.6997 49.8493C38.366 49.3747 38.509 48.7162 39.0098 48.4232C39.4137 48.1865 39.932 48.3032 40.196 48.69Z" fill="#2E527C"/>
<path d="M42.0313 44.6709C42.0313 40.5118 39.5025 35.6801 36.3832 33.8792C35.0544 33.1119 33.8338 33.0206 32.8691 33.4875L32.8683 33.4858L32.8488 33.497C32.7423 33.5497 32.6388 33.609 32.5389 33.6752L30.533 34.8283C29.2766 35.4842 28.4756 37.113 28.4756 39.4537C28.4756 43.6129 31.0044 48.4445 34.1236 50.2455C35.5083 51.0448 36.7758 51.1114 37.7583 50.5759L37.7587 50.5766L39.9571 49.3039C40.0404 49.2611 40.1216 49.214 40.2007 49.1629L40.208 49.1585L40.2076 49.158C41.3285 48.4294 42.0313 46.8626 42.0313 44.6709Z" fill="#284363"/>
<path d="M28.4756 39.454C28.4756 43.6131 31.0044 48.4448 34.1236 50.2457C37.2431 52.0467 39.7717 50.1351 39.7717 45.9758C39.7717 41.8167 37.2429 36.985 34.1236 35.184C31.0044 33.3833 28.4756 35.2948 28.4756 39.454Z" fill="#212938"/>
<path d="M28.855 42.3393C28.855 44.8192 30.3627 47.7 32.2227 48.7738C34.0825 49.8476 35.5904 48.7078 35.5904 46.2279C35.5904 43.748 34.0827 40.8673 32.2227 39.7935C30.3629 38.7197 28.855 39.8595 28.855 42.3393Z" fill="#2E527C"/>
<path d="M37.3555 92.5159L25.7773 85.8313V65.9104C25.7773 61.9433 28.1893 60.1198 31.1646 61.8377L31.968 62.3016C34.9433 64.0194 37.3553 68.6278 37.3553 72.5949L37.3555 92.5159Z" fill="#8392A5"/>
<path d="M66.1447 73.155L65.6152 73.4606C63.6547 74.5926 62.0654 73.3911 62.0654 70.7769V64.0112L69.6944 59.6066V66.3724C69.6944 68.9863 68.1052 72.0231 66.1447 73.155Z" fill="white"/>
</g>
<defs>
<clipPath id="clip0_23_64">
<rect width="96" height="96" fill="white"/>
</clipPath>
</defs>
</svg>
