<svg width="96" height="96" viewBox="0 0 96 96" fill="none" xmlns="http://www.w3.org/2000/svg">
<g clip-path="url(#clip0_23_103)">
<path d="M25.4361 30.6795V44.5359L31.4361 48.0002L35.2217 31.4143L25.4361 30.6795Z" fill="#FEB237"/>
<path d="M38.4304 90.7333L36.2248 94.5217L28.2222 89.9014V89.9012C24.2263 87.5942 21.7573 82.6629 21.7573 75.6442C21.7573 61.5491 31.7149 44.3737 43.9984 37.2819C50.1653 33.7215 55.7458 33.3797 59.7747 35.7056L67.7773 40.3258L65.5712 44.115L38.4304 90.7333Z" fill="#FFF0AD"/>
<path d="M36.1588 94.4501C27.5307 89.4013 27.6257 73.1931 36.371 58.2483C45.1162 43.3034 59.2001 35.2811 67.8282 40.33C76.4562 45.3789 76.3613 61.587 67.616 76.5319C58.8707 91.4767 44.7869 99.499 36.1588 94.4501Z" fill="#FFD15B"/>
<path d="M40.8907 86.3634C34.8411 82.8233 34.9076 71.4589 41.0394 60.9802C47.1712 50.5015 57.0462 44.8767 63.0959 48.4167C69.1456 51.9568 69.079 63.3212 62.9472 73.7999C56.8154 84.2786 46.9404 89.9035 40.8907 86.3634Z" fill="#FEB237"/>
<path d="M55.2486 53.6194V55.3359C55.2486 56.43 56.0215 56.8706 56.975 56.3201L57.7568 55.8686V60.0291L55.2486 61.4771V77.4786L48.7535 81.2286V57.3694L55.2486 53.6194Z" fill="#FFD15B"/>
<path d="M46.436 16.1064L67.436 13.3592V27.2156L31.436 48.0002V34.1438L46.436 16.1064Z" fill="#FFD15B"/>
<path d="M31.4359 13.8564V27.2154L41.1016 24.8269L39.3792 14.7836L31.4359 13.8564Z" fill="#0593FC"/>
<path d="M67.436 13.3592L61.6569 10.0225L55.436 13.359L61.436 16.8233L67.436 13.3592Z" fill="#FFF0AD"/>
<path d="M37.4359 30.6797L41.647 25.8527L37.4359 23.7512L25.4359 30.6795L31.4359 34.1437L37.4359 30.6797Z" fill="#FFF0AD"/>
<path d="M51.0423 6.92811L61.436 3.46405V23.7514L55.436 27.2154L51.0423 11.0578V6.92811Z" fill="#FE7D43"/>
<path d="M55.436 0L61.436 3.46406L55.436 6.92813L49.6267 7.11019L49.436 3.46406L55.436 0Z" fill="#FEAD8A"/>
<path d="M37.4361 17.3205L39.763 11.7356L44.7676 10.0225L43.4361 34.1438L37.4361 37.6078V17.3205Z" fill="#60B7FF"/>
<path d="M31.436 13.8565L37.436 10.3924L43.8608 9.16803L43.436 13.8565L37.436 17.3205L31.436 13.8565Z" fill="#B3DAFE"/>
<path d="M43.436 13.8564L47.2607 7.76416L55.436 6.9281V27.2154L43.436 34.1437V13.8564Z" fill="#B3DAFE"/>
<path d="M49.436 3.46405L55.436 6.92811L43.436 13.8564L37.436 10.3924L49.436 3.46405Z" fill="#D8ECFE"/>
</g>
<defs>
<clipPath id="clip0_23_103">
<rect width="96" height="96" fill="white" transform="matrix(-1 0 0 1 96 0)"/>
</clipPath>
</defs>
</svg>
