<svg width="24" height="25" viewBox="0 0 24 25" fill="none" xmlns="http://www.w3.org/2000/svg">
<g clip-path="url(#clip0_23_18)">
<g filter="url(#filter0_f_23_18)">
<path d="M7.30124 19.5628L7.60723 19.7437C8.89239 20.505 10.3659 20.9077 11.8686 20.9084H11.8718C16.4866 20.9084 20.2422 17.1607 20.2442 12.5545C20.245 10.3224 19.3749 8.22335 17.7942 6.6444C17.0189 5.8657 16.0965 5.24823 15.0805 4.82772C14.0645 4.40721 12.975 4.19202 11.8751 4.1946C7.25675 4.1946 3.50093 7.94185 3.49929 12.5478C3.49702 14.1206 3.94077 15.6619 4.77925 16.9936L4.97845 17.3095L4.13249 20.392L7.30124 19.5628ZM1.71387 22.78L3.14306 17.5719C2.26164 16.0477 1.79793 14.3186 1.79848 12.5471C1.8008 7.00528 6.31933 2.49677 11.8719 2.49677C14.5664 2.49813 17.0955 3.54471 18.9976 5.4445C20.8997 7.3443 21.9462 9.86953 21.9453 12.5552C21.9428 18.0966 17.4236 22.6059 11.8718 22.6059H11.8674C10.1817 22.6053 8.5252 22.1832 7.05385 21.3824L1.71387 22.78Z" fill="#B3B3B3"/>
</g>
<path d="M1.61084 22.6767L3.04003 17.4686C2.15709 15.9407 1.69332 14.2076 1.69545 12.4438C1.69778 6.90198 6.21631 2.39346 11.7689 2.39346C14.4634 2.39483 16.9925 3.44141 18.8946 5.3412C20.7967 7.241 21.8432 9.76622 21.8422 12.4519C21.8398 17.9933 17.3205 22.5026 11.7688 22.5026H11.7644C10.0786 22.502 8.42218 22.0798 6.95082 21.2791L1.61084 22.6767Z" fill="white"/>
<path d="M11.7718 4.0913C7.15346 4.0913 3.39765 7.83856 3.396 12.4445C3.39373 14.0173 3.83748 15.5586 4.67596 16.8903L4.87516 17.2064L4.02921 20.2888L7.19809 19.4595L7.50408 19.6404C8.78924 20.4017 10.2628 20.8043 11.7655 20.8051H11.7686C16.3834 20.8051 20.1392 17.0574 20.141 12.4512C20.1445 11.3533 19.9298 10.2657 19.5092 9.25119C19.0887 8.23671 18.4707 7.31557 17.691 6.5411C16.9157 5.76239 15.9933 5.14491 14.9773 4.7244C13.9612 4.30389 12.8717 4.0887 11.7718 4.0913Z" fill="url(#paint0_linear_23_18)"/>
<path fill-rule="evenodd" clip-rule="evenodd" d="M9.25089 8.24208C9.06223 7.82381 8.86371 7.81533 8.6845 7.80809L8.20203 7.80222C8.03418 7.80222 7.76146 7.86507 7.53091 8.1165C7.30036 8.36793 6.6499 8.9756 6.6499 10.2116C6.6499 11.4475 7.55186 12.6418 7.67754 12.8096C7.80322 12.9774 9.41874 15.5946 11.9772 16.6016C14.1032 17.4384 14.5358 17.272 14.9975 17.2301C15.4591 17.1883 16.4866 16.6225 16.6963 16.0359C16.9059 15.4492 16.906 14.9466 16.8432 14.8416C16.7803 14.7365 16.6125 14.674 16.3606 14.5483C16.1086 14.4226 14.8714 13.8149 14.6407 13.731C14.41 13.6471 14.2423 13.6055 14.0743 13.8569C13.9063 14.1083 13.4245 14.6739 13.2776 14.8416C13.1307 15.0092 12.9841 15.0303 12.7322 14.9047C12.4803 14.7791 11.6698 14.5137 10.7081 13.6579C9.95994 12.9921 9.45489 12.1697 9.30785 11.9184C9.16081 11.6671 9.29224 11.531 9.41847 11.4059C9.53142 11.2933 9.6701 11.1125 9.7962 10.9659C9.92229 10.8192 9.96377 10.7144 10.0476 10.547C10.1314 10.3796 10.0896 10.2326 10.0266 10.107C9.96364 9.98145 9.4746 8.73893 9.25089 8.24208Z" fill="white"/>
</g>
<defs>
<filter id="filter0_f_23_18" x="-5.34813" y="-4.56523" width="34.3554" height="34.4073" filterUnits="userSpaceOnUse" color-interpolation-filters="sRGB">
<feFlood flood-opacity="0" result="BackgroundImageFix"/>
<feBlend mode="normal" in="SourceGraphic" in2="BackgroundImageFix" result="shape"/>
<feGaussianBlur stdDeviation="3.531" result="effect1_foregroundBlur_23_18"/>
</filter>
<linearGradient id="paint0_linear_23_18" x1="11.5981" y1="5.09429" x2="11.6826" y2="19.3773" gradientUnits="userSpaceOnUse">
<stop stop-color="#57D163"/>
<stop offset="1" stop-color="#23B33A"/>
</linearGradient>
<clipPath id="clip0_23_18">
<rect width="23.9886" height="23.9886" fill="white" transform="translate(-0.164551 0.644119)"/>
</clipPath>
</defs>
</svg>
