<svg width="82" height="25" viewBox="0 0 82 25" fill="none" xmlns="http://www.w3.org/2000/svg">
<g clip-path="url(#clip0_23_16)">
<path d="M79.2824 14.5926C79.2363 14.8237 79.1553 15.0201 79.0454 15.1934C78.9358 15.3665 78.7911 15.5054 78.6065 15.6149C78.427 15.719 78.2019 15.7766 77.9359 15.7766C77.6759 15.7766 77.4503 15.7247 77.2713 15.6149C77.0925 15.5104 76.9402 15.3661 76.8262 15.1934C76.7162 15.0203 76.6353 14.8237 76.5835 14.5926C76.5325 14.3632 76.5073 14.1288 76.5083 13.8938C76.5083 13.6513 76.5316 13.4086 76.5777 13.1836C76.6239 12.9525 76.7048 12.7504 76.8148 12.5771C76.9244 12.3978 77.0691 12.2595 77.2537 12.1441C77.4331 12.0342 77.6584 11.9765 77.9243 11.9765C78.1843 11.9765 78.404 12.0342 78.5831 12.1441C78.7626 12.255 78.9148 12.405 79.0283 12.5828C79.1439 12.7618 79.2248 12.9696 79.2767 13.1951C79.3286 13.426 79.3519 13.657 79.3519 13.8938C79.3519 14.1306 79.3286 14.3616 79.2824 14.5926ZM80.82 12.7273C80.71 12.3403 80.5484 12.0054 80.3287 11.7108C80.1031 11.4222 79.8258 11.1852 79.4906 11.0121C79.1552 10.8388 78.7508 10.7464 78.2827 10.7464C77.9127 10.7464 77.5773 10.8215 77.2712 10.9659C76.9647 11.1104 76.7104 11.347 76.5138 11.6647H76.4908V10.9081H74.9418V18.9185H76.5717V16.1057H76.5947C76.7868 16.3883 77.05 16.6154 77.3578 16.7642C77.67 16.9143 78.0052 16.9894 78.375 16.9894C78.8086 16.9894 79.1899 16.9029 79.5194 16.7353C79.8374 16.5726 80.1157 16.3418 80.3344 16.0595C80.5541 15.7766 80.7158 15.453 80.82 15.0835C80.9299 14.7138 80.9818 14.3329 80.9818 13.9342C80.9818 13.5127 80.9299 13.1085 80.82 12.7214V12.7273ZM72.7803 14.5926C72.7342 14.8237 72.6533 15.0201 72.5433 15.1934C72.4334 15.3666 72.289 15.5054 72.104 15.6149C71.9249 15.719 71.6995 15.7766 71.4338 15.7766C71.1734 15.7766 70.954 15.7247 70.7689 15.6149C70.5902 15.5103 70.4379 15.3661 70.3238 15.1934C70.2141 15.0203 70.1332 14.8237 70.0814 14.5926C70.0303 14.3632 70.005 14.1288 70.0062 13.8938C70.0062 13.6513 70.0292 13.4086 70.0753 13.1836C70.1218 12.9525 70.2024 12.7504 70.3123 12.5771C70.4223 12.3978 70.5666 12.2595 70.7516 12.1441C70.9307 12.0342 71.1561 11.9765 71.4219 11.9765C71.6822 11.9765 71.9016 12.0342 72.081 12.1441C72.2605 12.255 72.4125 12.405 72.5259 12.5828C72.6415 12.7618 72.7224 12.9696 72.7746 13.1951C72.8265 13.426 72.8495 13.657 72.8495 13.8938C72.8495 14.1306 72.8265 14.3616 72.7803 14.5926ZM73.8262 11.7108C73.6067 11.4222 73.3235 11.1852 72.9883 11.0121C72.6531 10.8388 72.2486 10.7464 71.7802 10.7464C71.4103 10.7464 71.0752 10.8215 70.7687 10.9659C70.4626 11.1104 70.2083 11.347 70.0117 11.6647H69.9884V10.9081H68.4394V18.9185H70.0693V16.1057H70.0926C70.2847 16.3883 70.5479 16.6154 70.8557 16.7642C71.1676 16.9143 71.5028 16.9894 71.8726 16.9894C72.3118 16.9894 72.6875 16.9029 73.0173 16.7353C73.3352 16.5725 73.6133 16.3417 73.832 16.0595C74.0518 15.7766 74.2137 15.453 74.3236 15.0835C74.4302 14.7097 74.4847 14.3229 74.4854 13.9342C74.4854 13.5127 74.4332 13.1085 74.3236 12.7214C74.2137 12.3346 74.0518 11.9995 73.8262 11.7051V11.7108ZM63.0989 13.6744L64.1681 10.6654H64.1913L65.2259 13.6744H63.0989ZM63.2723 8.64407L60.1686 16.8391H61.9835L62.6252 15.0142H65.6941L66.3125 16.8391H68.1851L65.1162 8.64407H63.2666H63.2723ZM60.0357 14.2403C59.9257 14.0555 59.7871 13.8938 59.608 13.7668C59.4346 13.6399 59.2321 13.5414 59.0067 13.4607C58.7783 13.3858 58.5469 13.3203 58.3131 13.2645C58.082 13.2123 57.8565 13.1603 57.6368 13.1142C57.4171 13.0681 57.2148 13.0159 57.0473 12.9582C56.8741 12.9005 56.7353 12.8255 56.6312 12.733C56.5213 12.6405 56.4694 12.5251 56.4694 12.375C56.4694 12.2538 56.4983 12.1555 56.5617 12.0803C56.6253 12.0054 56.7005 11.9534 56.7871 11.9129C56.8739 11.8725 56.9721 11.8494 57.0821 11.838C57.1818 11.8269 57.2821 11.8212 57.3825 11.8207C57.6716 11.8207 57.9259 11.8784 58.1399 11.9881C58.3537 12.0978 58.4751 12.3115 58.4924 12.6233H60.0414C60.0123 12.2536 59.9143 11.9534 59.7582 11.7107C59.6021 11.468 59.4057 11.2776 59.1687 11.1332C58.9317 10.9888 58.6601 10.8849 58.3594 10.8214C58.059 10.7578 57.7468 10.7289 57.4231 10.7289C57.0997 10.7289 56.7875 10.758 56.4811 10.8155C56.1748 10.8732 55.8975 10.9715 55.6548 11.1159C55.4063 11.2603 55.2096 11.451 55.0653 11.6934C54.9149 11.9359 54.8398 12.2538 54.8398 12.6347C54.8398 12.8947 54.8917 13.114 55.0016 13.293C55.1057 13.4723 55.2501 13.6223 55.4235 13.7435C55.6027 13.8591 55.7993 13.9574 56.0247 14.0324C56.2501 14.1073 56.4813 14.1711 56.7183 14.2229C57.3021 14.3442 57.753 14.4654 58.0823 14.5867C58.4059 14.708 58.5679 14.8928 58.5679 15.1354C58.5679 15.2798 58.5332 15.401 58.4638 15.4992C58.396 15.595 58.307 15.6741 58.2037 15.7301C58.0996 15.7878 57.9839 15.8284 57.8569 15.8571C57.7374 15.8842 57.6153 15.8978 57.4928 15.8975C57.331 15.8975 57.1749 15.8804 57.0303 15.8398C56.8801 15.7994 56.7472 15.7414 56.6317 15.6607C56.516 15.5798 56.4235 15.4758 56.3485 15.3489C56.2733 15.2219 56.2386 15.0716 56.2386 14.8984H54.6896C54.7069 15.2967 54.7938 15.626 54.9613 15.8916C55.1232 16.1575 55.337 16.3653 55.5913 16.527C55.8456 16.6887 56.1404 16.8041 56.4699 16.8734C56.7994 16.9428 57.1344 16.9775 57.4812 16.9775C57.8166 16.9775 58.1516 16.9428 58.4754 16.8791C58.799 16.8157 59.0881 16.7001 59.3424 16.5384C59.5967 16.3767 59.799 16.163 59.9551 15.9031C60.111 15.6375 60.1919 15.3142 60.1919 14.9213C60.1919 14.6442 60.1401 14.4133 60.0301 14.2283L60.0357 14.2403ZM53.2905 9.12931H51.6606V10.9081H50.6721V11.9995H51.6606V15.4995C51.6606 15.7999 51.7125 16.0367 51.8109 16.2214C51.9092 16.4064 52.0479 16.5448 52.2213 16.6489C52.3947 16.747 52.5914 16.8163 52.8167 16.851C53.0539 16.8863 53.2935 16.9036 53.5334 16.9029C53.6952 16.9029 53.857 16.8972 54.0304 16.8915C54.1835 16.8863 54.336 16.8708 54.487 16.8452V15.5803C54.4072 15.5983 54.3261 15.6099 54.2444 15.6149C54.156 15.6218 54.0673 15.6257 53.9785 15.6265C53.7011 15.6265 53.5218 15.5803 53.4295 15.4877C53.337 15.3955 53.2907 15.2105 53.2907 14.9393V11.9995H54.487V10.9081H53.2907V9.12931H53.2905ZM48.6145 14.5465C48.6145 14.6387 48.6031 14.7601 48.5857 14.9161C48.5662 15.0757 48.513 15.2292 48.4296 15.3666C48.3429 15.5169 48.2157 15.6439 48.0366 15.7538C47.8634 15.8633 47.6089 15.9154 47.2912 15.9154C47.1639 15.9154 47.0367 15.9037 46.9096 15.8807C46.7883 15.8574 46.6785 15.817 46.586 15.7595C46.4935 15.7016 46.4242 15.6266 46.3663 15.5226C46.3144 15.4245 46.2854 15.3032 46.2854 15.153C46.2854 14.997 46.3144 14.8757 46.3663 14.7719C46.4183 14.6734 46.4933 14.5926 46.5803 14.5235C46.6669 14.4599 46.771 14.4081 46.8923 14.3676C47.0137 14.3272 47.1293 14.2982 47.2564 14.2751C47.3869 14.2526 47.5179 14.2334 47.6494 14.2174C47.7823 14.2001 47.9038 14.1826 48.0252 14.1597C48.1466 14.1367 48.2563 14.1077 48.3604 14.0731C48.4645 14.0386 48.5511 13.9923 48.6206 13.9287V14.5352L48.6145 14.5465ZM50.2444 15.5225V12.4326C50.2444 12.0746 50.1635 11.7858 50.0019 11.5664C49.8401 11.3469 49.6318 11.1795 49.3833 11.0582C49.129 10.9369 48.8516 10.8561 48.5452 10.81C48.2445 10.7689 47.9414 10.7476 47.6379 10.7464C47.3083 10.7464 46.9789 10.7811 46.6553 10.8447C46.3318 10.9082 46.0369 11.0178 45.7768 11.1739C45.5206 11.3262 45.3015 11.5333 45.1352 11.7804C44.9677 12.0345 44.8693 12.352 44.8463 12.7333H46.4762C46.5051 12.4101 46.6149 12.1848 46.7997 12.0461C46.9848 11.9074 47.2332 11.8383 47.557 11.8383C47.7016 11.8383 47.84 11.8497 47.9674 11.8671C48.0858 11.8827 48.1999 11.922 48.3027 11.9827C48.401 12.0404 48.476 12.1212 48.534 12.2252C48.5917 12.3292 48.6206 12.4676 48.6206 12.6467C48.6263 12.8141 48.5801 12.9414 48.4702 13.0337C48.3604 13.1202 48.2159 13.1897 48.0311 13.2358C47.8462 13.2819 47.6381 13.3167 47.4011 13.3398C47.1641 13.3629 46.9214 13.3918 46.6786 13.4322C46.4359 13.4726 46.193 13.5245 45.9503 13.588C45.7076 13.6516 45.4936 13.7497 45.3086 13.8827C45.1179 14.0154 44.9677 14.1887 44.8463 14.4024C44.725 14.6219 44.6671 14.8992 44.6671 15.2341C44.6671 15.5402 44.7189 15.8059 44.8232 16.0253C44.9207 16.2392 45.0672 16.4272 45.2509 16.5741C45.4417 16.7224 45.6596 16.8322 45.8924 16.8975C46.1351 16.9668 46.401 17.0013 46.6842 17.0013C47.0541 17.0013 47.4125 16.9495 47.765 16.8396C48.1137 16.7333 48.4298 16.5406 48.684 16.2796C48.6897 16.3777 48.7072 16.4757 48.7245 16.5741C48.7418 16.6664 48.7706 16.7646 48.7997 16.8571H50.4527C50.3775 16.7358 50.3198 16.5508 50.2909 16.3083C50.2603 16.0534 50.2449 15.7969 50.2446 15.5402V15.5225H50.2444ZM43.5285 11.422C43.3667 11.2142 43.1469 11.0466 42.8696 10.9311C42.5922 10.8098 42.234 10.7519 41.7945 10.7519C41.4882 10.7519 41.1761 10.8328 40.8525 10.9888C40.5289 11.1447 40.2687 11.3989 40.0607 11.7395H40.026V8.64978H38.3961V16.845H40.026V13.7321C40.026 13.1256 40.1243 12.6925 40.3266 12.4269C40.5232 12.1612 40.8468 12.0342 41.2918 12.0342C41.679 12.0342 41.9565 12.1555 42.1067 12.3978C42.2571 12.6404 42.338 13.0044 42.338 13.4951V16.845H43.9679V13.1951C43.9679 12.8254 43.9332 12.4906 43.8696 12.1902C43.8059 11.8898 43.6903 11.63 43.5285 11.422ZM34.9107 14.2982H34.8876L33.489 8.64994H31.8012L30.3793 14.2289H30.3561L29.0556 8.64994H27.2524L29.4255 16.8452H31.252L32.616 11.266H32.6391L34.0263 16.8452H35.818L36.8005 13.2066L38.0258 8.64994H36.2571L34.9107 14.2982Z" fill="white"/>
<g clip-path="url(#clip1_23_16)">
<g filter="url(#filter0_f_23_16)">
<path d="M7.30124 19.5628L7.60723 19.7437C8.89239 20.505 10.3659 20.9077 11.8686 20.9084H11.8718C16.4866 20.9084 20.2422 17.1607 20.2442 12.5545C20.245 10.3224 19.3749 8.22335 17.7942 6.6444C17.0189 5.8657 16.0965 5.24823 15.0805 4.82772C14.0645 4.40721 12.975 4.19202 11.8751 4.1946C7.25675 4.1946 3.50093 7.94185 3.49929 12.5478C3.49702 14.1206 3.94077 15.6619 4.77925 16.9936L4.97845 17.3095L4.13249 20.392L7.30124 19.5628ZM1.71387 22.78L3.14306 17.5719C2.26164 16.0477 1.79793 14.3186 1.79848 12.5471C1.8008 7.00528 6.31933 2.49677 11.8719 2.49677C14.5664 2.49813 17.0955 3.54471 18.9976 5.4445C20.8997 7.3443 21.9462 9.86953 21.9453 12.5552C21.9428 18.0966 17.4236 22.6059 11.8718 22.6059H11.8674C10.1817 22.6053 8.5252 22.1832 7.05385 21.3824L1.71387 22.78Z" fill="#B3B3B3"/>
</g>
<path d="M1.61084 22.6767L3.04003 17.4686C2.15709 15.9407 1.69332 14.2076 1.69545 12.4438C1.69778 6.90198 6.21631 2.39346 11.7689 2.39346C14.4634 2.39483 16.9925 3.44141 18.8946 5.3412C20.7967 7.241 21.8432 9.76622 21.8422 12.4519C21.8398 17.9933 17.3205 22.5026 11.7688 22.5026H11.7644C10.0786 22.502 8.42218 22.0798 6.95082 21.2791L1.61084 22.6767Z" fill="white"/>
<path d="M11.7718 4.0913C7.15346 4.0913 3.39765 7.83856 3.396 12.4445C3.39373 14.0173 3.83748 15.5586 4.67596 16.8903L4.87516 17.2064L4.02921 20.2888L7.19809 19.4595L7.50408 19.6404C8.78924 20.4017 10.2628 20.8043 11.7655 20.8051H11.7686C16.3834 20.8051 20.1392 17.0574 20.141 12.4512C20.1445 11.3533 19.9298 10.2657 19.5092 9.25119C19.0887 8.23671 18.4707 7.31557 17.691 6.5411C16.9157 5.76239 15.9933 5.14491 14.9773 4.7244C13.9612 4.30389 12.8717 4.0887 11.7718 4.0913Z" fill="url(#paint0_linear_23_16)"/>
<path fill-rule="evenodd" clip-rule="evenodd" d="M9.25089 8.24208C9.06223 7.82381 8.86371 7.81533 8.6845 7.80809L8.20203 7.80222C8.03418 7.80222 7.76146 7.86507 7.53091 8.1165C7.30036 8.36793 6.6499 8.9756 6.6499 10.2116C6.6499 11.4475 7.55186 12.6418 7.67754 12.8096C7.80322 12.9774 9.41874 15.5946 11.9772 16.6016C14.1032 17.4384 14.5358 17.272 14.9975 17.2301C15.4591 17.1883 16.4866 16.6225 16.6963 16.0359C16.9059 15.4492 16.906 14.9466 16.8432 14.8416C16.7803 14.7365 16.6125 14.674 16.3606 14.5483C16.1086 14.4226 14.8714 13.8149 14.6407 13.731C14.41 13.6471 14.2423 13.6055 14.0743 13.8569C13.9063 14.1083 13.4245 14.6739 13.2776 14.8416C13.1307 15.0092 12.9841 15.0303 12.7322 14.9047C12.4803 14.7791 11.6698 14.5137 10.7081 13.6579C9.95994 12.9921 9.45489 12.1697 9.30785 11.9184C9.16081 11.6671 9.29224 11.531 9.41847 11.4059C9.53142 11.2933 9.6701 11.1125 9.7962 10.9659C9.92229 10.8192 9.96377 10.7144 10.0476 10.547C10.1314 10.3796 10.0896 10.2326 10.0266 10.107C9.96364 9.98145 9.4746 8.73893 9.25089 8.24208Z" fill="white"/>
</g>
</g>
<defs>
<filter id="filter0_f_23_16" x="-5.34813" y="-4.56523" width="34.3554" height="34.4073" filterUnits="userSpaceOnUse" color-interpolation-filters="sRGB">
<feFlood flood-opacity="0" result="BackgroundImageFix"/>
<feBlend mode="normal" in="SourceGraphic" in2="BackgroundImageFix" result="shape"/>
<feGaussianBlur stdDeviation="3.531" result="effect1_foregroundBlur_23_16"/>
</filter>
<linearGradient id="paint0_linear_23_16" x1="11.5981" y1="5.09429" x2="11.6826" y2="19.3773" gradientUnits="userSpaceOnUse">
<stop stop-color="#57D163"/>
<stop offset="1" stop-color="#23B33A"/>
</linearGradient>
<clipPath id="clip0_23_16">
<rect width="81.1429" height="24" fill="white" transform="translate(0.406738 0.262146)"/>
</clipPath>
<clipPath id="clip1_23_16">
<rect width="23.9886" height="23.9886" fill="white" transform="translate(-0.164551 0.644119)"/>
</clipPath>
</defs>
</svg>
