<svg xmlns="http://www.w3.org/2000/svg" width="146" height="30"><path d="M13.642 18.174v-2.37h7.927c0-.447.004-.855-.002-1.263-.007-.524.133-1.126-.08-1.55-.207-.407-.78-.633-1.195-.933-1.282-.924-2.568-1.84-3.845-2.768-.175-.128-.3-.145-.492-.02-1.696 1.092-3.402 2.169-5.098 3.262-.114.074-.237.242-.237.365-.013 2.658-.009 5.314-.009 7.972 0 .034.013.071.024.131H26.79V5.09c0-.995-.453-1.45-1.446-1.45H6.83c-.995 0-1.448.448-1.448 1.445q-.002 9.909 0 19.818c0 1.016.447 1.457 1.474 1.457H29.15v2.39H6.79c-2.24 0-3.788-1.545-3.788-3.776q-.004-9.983 0-19.967c0-2.187 1.553-3.752 3.736-3.754q9.351-.006 18.703 0c2.158.002 3.73 1.569 3.733 3.728.006 5.679.002 11.357.002 17.036 0 .949-.46 1.404-1.411 1.404H9.625c-.951 0-1.417-.46-1.417-1.4-.003-3.27.002-6.544-.005-9.814-.002-.568.22-.97.704-1.273 2.174-1.368 4.338-2.753 6.507-4.132.666-.423 1.044-.412 1.687.048 2.06 1.471 4.116 2.949 6.185 4.41.462.325.673.727.665 1.298-.022 1.416-.007 2.833-.005 4.25 0 .913-.446 1.368-1.353 1.368-2.86.003-5.719 0-8.58 0-.11-.002-.222-.002-.37-.002M44.352 20.495l-.852-2.97 7.682-2.192c-.518-.91-1.234-1.521-2.185-1.839a6.4 6.4 0 0 0-4.03-.032c-1.62.514-2.492 1.698-2.8 3.323-.212 1.115-.104 2.215.254 3.298.533 1.614 1.7 2.451 3.318 2.734.406.071.824.086 1.236.086 1.931.009 3.864.004 5.795.004h.442V26c-.067.013-.127.032-.187.032-2.346-.015-4.693.04-7.034-.064-3.816-.169-6.733-3.107-7.014-6.91-.116-1.586-.017-3.142.643-4.602 1.198-2.648 3.319-4.03 6.169-4.34 1.723-.187 3.41-.02 4.988.756 2.161 1.061 3.432 2.824 3.933 5.154.179.829-.264 1.595-1.064 1.828-3.042.886-6.086 1.756-9.132 2.63-.035.01-.074.006-.162.012M130.099 22.906h5.989c.745 0 1.478-.07 2.173-.365.708-.302 1.085-.757 1.036-1.284-.065-.703-.572-1.031-1.17-1.154-1.027-.214-2.075-.33-3.109-.52-.921-.17-1.855-.321-2.748-.595-1.621-.497-2.447-1.688-2.583-3.34-.216-2.604 1.15-4.416 3.838-5.068a11 11 0 0 1 2.304-.296c1.906-.04 3.813-.015 5.72-.015.086 0 .172.011.285.02v3.109h-.423c-1.793 0-3.588-.03-5.381.015a8.8 8.8 0 0 0-2.138.325c-.798.227-1.154.734-1.124 1.32.028.544.421.976 1.221 1.144 1.066.222 2.151.339 3.223.531.801.142 1.606.285 2.384.516 1.782.528 2.73 1.795 2.805 3.65.086 2.123-.859 3.603-2.861 4.483-1.063.468-2.187.635-3.335.645-1.918.018-3.838.007-5.756.007-.151 0-.35.056-.35-.21zM107.045 26.034c-1.078 0-2.116.009-3.154-.015-.097-.002-.233-.192-.278-.32-1.001-2.804-1.991-5.613-2.984-8.42-.371-1.05-.74-2.101-1.12-3.148a2 2 0 0 0-.272-.53c-.332-.432-.949-.484-1.315-.085a2.3 2.3 0 0 0-.445.77A2374 2374 0 0 0 93.44 25.68c-.094.27-.211.367-.5.36-.977-.02-1.955-.006-2.964-.006.028-.125.04-.22.073-.309 1.573-4.369 3.141-8.737 4.723-13.102.545-1.51 2.023-2.49 3.721-2.502 1.7-.011 3.217.944 3.761 2.444 1.596 4.412 3.169 8.833 4.75 13.25.015.048.018.098.041.219M126.687 26.036H124.1c-.747 0-.749 0-.999-.708l-3.955-11.18c-.146-.416-.343-.791-.832-.876-.497-.084-.904.192-1.131.786-.263.69-.5 1.39-.746 2.084-1.129 3.184-2.259 6.367-3.377 9.553-.086.248-.194.352-.472.347-.986-.019-1.974-.006-3.01-.006.056-.17.097-.298.143-.423l4.625-12.854c.589-1.635 2.039-2.636 3.814-2.639 1.765 0 3.206 1.006 3.798 2.656q2.305 6.43 4.606 12.86c.041.115.071.234.123.4M89.738 10.12l-1.24 3.48-3.521 9.823c-.572 1.592-2.011 2.593-3.759 2.608-1.752.015-3.24-.983-3.816-2.58-1.56-4.32-3.115-8.638-4.673-12.96-.037-.103-.065-.211-.117-.373h1.446c.513 0 1.029.02 1.542-.007.294-.015.408.095.5.363 1.34 3.812 2.696 7.62 4.044 11.43q.023.071.047.143c.223.57.572.865 1.025.85.561-.02.796-.412.958-.87q1.44-4.068 2.876-8.14c.404-1.143.816-2.287 1.206-3.435.088-.258.212-.343.483-.336.978.015 1.955.004 3 .004M58.53 3.986h3.075v22.022H58.53zM68.911 10.293V26.01H65.84V10.293zM68.906 7.068h-3.06V3.989h3.06z"></path></svg>